<svg width="172" height="207" viewBox="0 0 172 207" fill="none" xmlns="http://www.w3.org/2000/svg">
<path d="M21.2513 54.994L19.9171 43.7438C21.9601 43.4098 23.7984 43.1084 25.637 42.8097C27.1147 42.7262 28.5896 42.643 30.0676 42.5623C30.3851 42.8945 30.7056 43.229 31.023 43.5612C31.3423 44.9636 31.6591 46.3692 31.9834 47.7905L37.1793 47.1743L36.5378 41.7644L41.8983 41.1287L41.2112 35.335L46.9638 34.6528L46.3202 29.2265L51.508 28.6112C51.0791 24.9946 50.6759 21.5946 50.273 18.1974C50.9647 17.8401 51.6591 17.4824 52.3508 17.1251C53.1734 17.0276 53.9987 16.9297 54.8213 16.8322C55.2154 17.0607 55.6123 17.2889 56.0067 17.5202L56.5923 22.4584L62.0845 21.8071L61.3691 15.7748L66.853 15.1245C67.1128 17.3153 67.3407 19.2374 67.5687 21.1595C67.9943 24.7487 68.42 28.3379 68.8554 32.0093L80.133 30.6719L79.5275 25.5664L90.5172 24.2631L91.1565 29.6538L96.5499 29.0142L97.2005 34.5008L108.475 33.1637L107.187 22.2974C107.176 22.2069 107.165 22.1164 107.155 22.0259C108.959 21.9092 110.763 21.7898 112.723 21.6631L113.337 26.8481L124.259 25.5529C124.486 27.4696 124.713 29.3834 124.94 31.3C123.18 31.5088 121.417 31.7179 119.566 31.9374L120.221 37.4624L125.911 36.7877L126.565 42.3017L131.854 41.6744L132.528 47.3612L143.636 46.044L144.287 51.5333L138.915 52.1703L139.56 57.6049L144.775 56.9864C145.188 58.8727 145.554 60.5531 145.964 62.4397L156.836 61.1504L158.139 72.1374C154.525 72.566 150.908 72.9949 147.13 73.443L147.781 78.9296L142.064 79.6076L141.411 74.1072L135.746 74.779L133.139 52.7914L127.913 53.4112C127.503 51.5246 127.137 49.8469 126.743 48.0473C124.903 48.2655 123.176 48.4704 121.451 48.6749C121.243 46.9201 121.034 45.1625 120.815 43.3144L115.438 43.9521C115.492 45.183 115.543 46.3115 115.593 47.4372C115.31 46.2223 115.024 45.005 114.741 43.7901C114.772 41.968 114.806 40.1482 114.839 38.223L86.9347 41.5323C87.1571 43.4077 87.3619 45.1352 87.5671 46.8653C82.0421 47.5206 76.5144 48.1761 70.8193 48.8515L71.499 54.5821L49.3002 57.2147L48.6134 51.4238C46.6719 51.7458 44.9649 52.0288 43.1108 52.3377L44.3942 63.1601L39.1818 63.7783L40.5209 75.0696L34.8423 75.743L38.1158 103.346L32.61 103.999C31.0592 104.169 29.5111 104.339 27.9603 104.509C27.8785 104.382 27.7971 104.258 27.6309 104.006C27.5223 104.285 27.469 104.422 27.4133 104.563C27.528 106.42 27.6396 108.275 27.7542 110.133L22.295 110.781L22.945 116.262L17.2007 116.943L15.9045 106.014L21.5337 105.346L20.8476 99.5605L15.5228 100.192L14.8776 94.752L9.21278 95.4238L7.93095 84.6151L19.1016 83.2903L17.7775 72.1251L12.2443 72.7813C12.0098 70.8044 11.8007 69.0413 11.5917 67.2783C18.9428 66.4065 26.2967 65.5344 33.6533 64.6619L32.9994 59.1479L27.3811 59.8142C27.2415 57.9094 27.1147 56.1838 26.975 54.3263L21.2498 55.0053L21.2513 54.994ZM57.9707 33.8229L52.5992 34.4599L53.8677 45.1562L64.5969 43.8838L63.9625 38.5343L58.6048 39.1697L57.9707 33.8229Z" fill="#211614"/>
<path d="M121.45 48.6696L126.742 48.042C127.134 49.8446 127.499 51.5196 127.912 53.4058L133.138 52.7861L135.746 74.7737L141.411 74.1019L142.063 79.6022C140.192 79.9103 138.318 80.2187 136.447 80.524C134.672 80.7512 132.895 80.9787 131.12 81.2058C124.348 81.9199 117.579 82.6338 110.807 83.3479L108.747 83.5921L111.344 105.489C111.294 105.556 111.261 105.635 111.249 105.717C109.423 105.934 107.597 106.151 105.771 106.37C105.78 106.285 105.755 106.213 105.703 106.147C105.302 102.769 104.902 99.391 104.501 96.0129C104.477 95.8378 104.454 95.6653 104.431 95.4902C104.206 93.5955 103.981 91.6981 103.755 89.7897L92.625 91.1096L93.2988 96.7909C93.6926 100.439 94.0891 104.088 94.4828 107.736L94.5048 107.734C92.7701 107.948 91.0358 108.165 89.3011 108.379C88.5031 101.978 87.7054 95.5801 86.9102 89.1792L86.5597 86.2234L80.3848 86.9557C76.0071 87.5082 71.6263 88.0583 67.2486 88.6108C67.1475 88.6256 67.0467 88.6431 66.9455 88.6579C65.4462 88.8635 63.9392 89.0283 62.4519 89.2881C59.5149 89.7977 56.5869 90.359 53.6563 90.8984C53.8527 92.5546 54.0491 94.2107 54.2458 95.8696C54.8839 101.344 55.5223 106.821 56.1631 112.295C56.0544 112.316 55.9433 112.34 55.8346 112.361C54.0151 112.563 52.1931 112.768 50.3736 112.97L50.4073 112.997C49.74 107.604 49.0729 102.214 48.4056 96.8208C48.3597 96.7623 48.3135 96.701 48.2649 96.6428C48.1988 96.6952 48.1382 96.7468 48.0776 96.7985C46.5645 96.9585 45.0518 97.1212 43.5387 97.2812L46.1241 119.082L51.0295 118.501C51.0816 118.589 51.1362 118.674 51.1884 118.763C51.1714 118.854 51.1455 118.94 51.108 119.022L45.9916 119.629L50.5349 157.94L55.7555 157.32L57.7137 173.832L63.3566 173.163C63.819 177.062 64.2554 180.742 64.6918 184.422L58.9639 185.101L57.6407 173.944L52.1925 174.59L50.2369 158.1L44.7119 158.755L42.7684 142.367C40.8461 142.406 39.1266 142.443 37.1961 142.482L36.5643 137.155L41.922 136.519L40.6873 126.108C39.3222 125.992 38.1033 125.889 36.8868 125.783L40.6377 125.338L38.6782 108.816C36.7315 109.046 35.0095 109.251 33.2848 109.455C33.2686 109.365 33.2524 109.275 33.2362 109.186C33.0414 107.543 32.8436 105.898 32.6461 104.256C32.6353 104.166 32.6246 104.075 32.6139 103.985L38.1197 103.332L34.8462 75.7288L40.5247 75.0554L39.1857 63.7641L44.3981 63.1459L43.1146 52.3235C44.9688 52.0146 46.6758 51.7315 48.6173 51.4095L49.3041 57.2005L71.5028 54.5679L71.539 54.5914C71.7393 56.3277 71.94 58.0668 72.1376 59.8034L50.246 62.3996L50.8953 67.8752C49.0353 68.2042 47.1752 68.5333 45.2442 68.8735L47.8364 90.7322L53.2518 90.09L52.6037 84.6253L52.5923 84.5294C52.7612 84.476 52.93 84.4226 53.0958 84.3668C53.8424 84.3088 54.5867 84.2539 55.3333 84.196C55.8686 84.138 56.4043 84.0829 56.9369 84.0253C57.4096 84.0026 57.8797 83.9802 58.3524 83.9575C58.5307 83.9363 58.7089 83.9152 58.8902 83.8965C67.7576 82.8449 76.6223 81.7936 85.4897 80.742C85.7047 80.7026 85.9173 80.6663 86.1323 80.6269C87.9235 80.3505 89.712 80.0744 91.5032 79.7981L91.4479 79.7768C91.4715 79.952 91.4974 80.1241 91.521 80.2992L86.1934 80.931L86.7969 86.0201L91.694 85.4393C91.7805 84.645 91.8543 83.9772 91.9283 83.3123C92.0936 83.9322 92.2586 84.5493 92.4211 85.1696C95.9893 84.6602 99.5543 84.1485 103.122 83.6391C103.282 83.6257 103.442 83.6151 103.605 83.6014C105.271 83.6568 106.938 83.7122 108.934 83.7786L108.285 78.3111C108.365 78.2099 108.445 78.1087 108.524 78.0075L130.32 75.4227L129.766 70.7477C125.482 70.9888 121.344 71.2236 117.207 71.4585C118.301 71.301 119.394 71.1463 120.488 70.9888L129.451 69.9258L127.485 53.3425L122.078 53.9838L122.118 53.9261L122.07 53.8762C121.938 52.877 121.809 51.8802 121.676 50.8811C121.664 50.7796 121.647 50.6788 121.632 50.5777C121.611 50.4022 121.585 50.2246 121.561 50.0495C121.518 49.5957 121.476 49.142 121.433 48.691L121.465 48.6539L121.45 48.6696Z" fill="#0D0C0C"/>
<path d="M107.184 22.295L108.472 33.1613L97.1975 34.4984L96.5468 29.0118L91.1534 29.6514L90.5141 24.2607L79.5244 25.564L80.1299 30.6695L68.8523 32.007C68.4169 28.3355 67.9913 24.7463 67.5656 21.1571C69.3835 20.9415 71.2014 20.7259 73.1646 20.4931L72.5065 14.9434L94.2802 12.3612L94.9342 17.8753L100.722 17.1888L101.409 22.9798L107.181 22.2953L107.184 22.295Z" fill="#3E261C"/>
<path d="M50.2699 18.195L51.5049 28.6089L46.3172 29.2242L46.9607 34.6505L41.2081 35.3327L41.8952 41.1264L36.5347 41.7621L37.1763 47.1719L31.9803 47.7881C31.6584 46.3638 31.3392 44.9613 31.02 43.5589C30.9878 43.2874 30.9552 43.0132 30.9231 42.7418C30.9472 42.7111 31.0006 42.6686 30.9925 42.6474C30.9679 42.5808 30.9224 42.525 30.8871 42.4624C30.6129 42.495 30.3388 42.5275 30.0646 42.56C28.5869 42.6435 27.112 42.7266 25.634 42.8074C25.22 39.3169 24.8061 35.8264 24.3788 32.2235L29.5227 31.6135L30.1434 36.8478L35.9426 36.1601L35.3209 30.9175C38.9406 30.327 42.3556 29.769 45.9808 29.1778L44.659 18.0319C46.6359 17.7974 48.399 17.5883 50.1621 17.3792L50.159 17.3768C50.197 17.6504 50.235 17.9239 50.2754 18.1944L50.2699 18.195Z" fill="#3D241B"/>
<path d="M143.638 46.0411L132.531 47.3584L131.856 41.6716L126.567 42.2989L125.913 36.7848L120.224 37.4596L119.568 31.9346C121.419 31.7151 123.18 31.5063 124.943 31.2972C128.526 30.8722 132.11 30.4472 135.899 29.9978L136.551 35.4927L142.309 34.8098L143.641 46.0408L143.638 46.0411Z" fill="#3E261C"/>
<path d="M142.063 79.6049L147.78 78.927L147.13 73.4403C150.908 72.9923 154.525 72.5634 158.138 72.1348L158.786 77.594L153.105 78.2677L153.757 83.7708L148.336 84.4137L150.969 106.612C149.036 106.842 147.191 107.061 145.342 107.28C144.465 99.8764 142.939 87.0113 142.061 79.608L142.063 79.6049Z" fill="#0D0C0C"/>
<path d="M17.1997 116.935L22.9441 116.254L22.294 110.772L27.7532 110.125C28.3837 113.776 29.0137 117.424 29.6469 121.075L30.9781 132.301L35.9164 131.715L36.5625 137.163L31.117 137.809C30.7424 136.01 30.3864 134.298 30.0171 132.52C28.3573 132.545 26.7307 132.568 24.9068 132.593L23.6675 122.143C21.7898 122.182 20.1121 122.22 18.1206 122.261C17.8199 120.523 17.5124 118.727 17.2024 116.934L17.1997 116.935Z" fill="#0D0C0C"/>
<path d="M21.2513 54.9942L26.9764 54.3153C27.1133 56.1731 27.2401 57.8987 27.3826 59.8031L33.0008 59.1368L33.6547 64.6509C26.2954 65.5236 18.9442 66.3954 11.5931 67.2672C11.3843 65.5069 11.1759 63.7493 10.9479 61.8272L16.2646 61.1967C16.2258 59.2994 16.1903 57.5463 16.1485 55.5994L21.2513 54.9942Z" fill="#3D241B"/>
<path d="M124.253 25.5509L113.332 26.846L112.717 21.661C110.758 21.7877 108.953 21.9071 107.149 22.0238C106.94 20.2608 106.731 18.5004 106.51 16.6387L117.316 15.3572L117.986 21.0028L123.634 20.333L124.253 25.5509Z" fill="#3E261C"/>
<path d="M54.8209 16.8296C53.9984 16.9271 53.173 17.025 52.3504 17.1226C51.6184 17.2094 50.8883 17.2904 50.1559 17.3745L50.159 17.3769C49.9509 15.622 49.7431 13.8699 49.5057 11.8683L60.5036 10.5641C60.7768 12.2111 61.0738 13.9888 61.3681 15.7667C61.6084 17.793 61.849 19.8221 62.0835 21.799L56.5914 22.4503C56.3872 20.7284 56.1963 19.1189 56.0057 17.5121C55.9103 17.2704 55.8122 17.029 55.7128 16.7766C55.3674 16.7954 55.0937 16.8084 54.8203 16.8241L54.8209 16.8296Z" fill="#3D241B"/>
<path d="M64.6845 184.431L70.1684 183.78C70.4016 185.746 70.6103 187.507 70.8188 189.264L65.3349 189.915L64.6845 184.431Z" fill="#0D0C0C"/>
<path d="M136.109 125.077L125.336 126.354L124.689 120.901L124.718 120.861C125.289 122.395 125.862 123.926 126.507 125.657L135.585 124.58L134.446 114.975C133.744 115.058 133.124 115.151 132.499 115.203C127.598 115.609 122.696 116.01 117.795 116.41C117.871 116.326 117.944 116.24 118.02 116.156C123.674 115.488 129.329 114.823 134.983 114.155C135.154 115.764 135.323 117.374 135.494 118.983C135.466 119.097 135.438 119.209 135.412 119.323C135.424 119.419 135.441 119.514 135.454 119.607C135.673 121.43 135.892 123.253 136.114 125.076L136.109 125.077Z" fill="#EAAE6A"/>
<path d="M135.492 118.983C135.32 117.374 135.152 115.764 134.98 114.155C136.782 113.942 138.586 113.728 140.522 113.498L141.165 118.919C141.084 118.965 140.996 118.978 140.905 118.961C139.153 119.069 137.397 119.177 135.644 119.285C135.593 119.185 135.542 119.083 135.492 118.983Z" fill="#BB6635"/>
<path d="M138.944 102.022C139.034 102.169 139.124 102.32 139.211 102.468C139.4 104.2 139.591 105.935 139.78 107.667C139.615 107.684 139.45 107.7 139.285 107.714C139.074 105.979 138.863 104.244 138.652 102.512C138.011 96.9661 137.372 91.4196 136.731 85.8734C136.79 85.8526 136.851 85.8314 136.91 85.8105L136.976 85.7609C137.384 89.0798 137.792 92.4014 138.199 95.7203C138.377 97.2201 138.553 98.723 138.728 100.223C138.799 100.821 138.87 101.419 138.943 102.016L138.944 102.022Z" fill="#F7A865"/>
<path d="M139.286 107.717C139.45 107.7 139.615 107.684 139.78 107.67C133.263 108.537 126.748 109.407 120.231 110.274C119.276 110.402 118.321 110.509 117.364 110.623L117.395 110.627C117.263 108.791 117.135 106.955 117.003 105.118L117.012 105.103L117.143 105.077L117.275 105.069L117.89 110.255L139.283 107.718L139.286 107.717Z" fill="#FDC878"/>
<path d="M118.02 116.156C117.944 116.24 117.871 116.327 117.795 116.411C117.778 116.315 117.76 116.217 117.744 116.122C117.546 114.458 117.349 112.791 117.129 110.94L111.933 111.556C111.936 111.436 111.938 111.316 111.941 111.199C113.759 111.009 115.58 110.818 117.398 110.627L117.367 110.622C117.585 112.468 117.804 114.31 118.023 116.156L118.02 116.156Z" fill="#F7A865"/>
<path d="M140.908 118.961C140.999 118.978 141.087 118.965 141.167 118.919C141.184 119.009 141.194 119.099 141.2 119.193C141.007 119.163 140.817 119.133 140.624 119.1C140.719 119.053 140.814 119.008 140.908 118.961Z" fill="#4B271A"/>
<path d="M120.876 138.172C120.907 138.297 120.939 138.421 120.97 138.548C121.169 140.22 121.367 141.89 121.591 143.779C119.617 144.013 117.856 144.222 116.093 144.431C116.004 144.431 115.918 144.452 115.836 144.49C108.533 145.414 101.227 146.336 93.9233 147.261C92.1219 147.357 90.3208 147.457 88.3177 147.564L87.7278 142.59L82.0492 143.263L83.3389 154.138L78.0031 154.771L76.6757 143.578L81.9896 142.948L81.3334 137.415L87.1161 136.729C87.0881 136.821 87.0961 136.912 87.1425 136.998L87.7555 142.167L111.879 139.306C114.879 138.928 117.879 138.55 120.879 138.172L120.876 138.172Z" fill="#0D0C0C"/>
<path d="M117.424 155.657C115.695 156.007 113.962 156.357 112.018 156.749L112.636 161.958L101.462 163.283L100.844 158.074C98.7461 158.175 96.8578 158.266 94.9694 158.356C94.8521 156.593 94.7379 154.833 94.6206 153.07C102.022 152.201 109.424 151.334 116.825 150.465C117.025 152.195 117.225 153.929 117.425 155.66L117.424 155.657Z" fill="#0D0C0C"/>
<path d="M87.1398 136.999C87.0961 136.912 87.0854 136.821 87.1134 136.729C87.316 136.75 87.5214 136.77 87.7237 136.787C90.7988 136.412 93.8771 136.038 96.9522 135.662C98.2296 135.461 99.51 135.262 100.787 135.06C105.1 134.549 109.411 134.038 113.724 133.526C114.095 133.51 114.468 133.496 114.839 133.48C116.441 133.415 118.041 133.353 119.784 133.283L119.962 134.783C119.928 135.757 119.893 136.734 119.857 137.698C117.132 138.163 114.494 138.615 111.854 139.067L88.1604 141.877C87.7834 140.081 87.4588 138.54 87.134 136.996L87.1398 136.999Z" fill="#EBD8B3"/>
<path d="M94.6203 153.067C94.7376 154.83 94.8518 156.59 94.9691 158.353C93.2061 158.562 91.4457 158.771 89.4661 159.006C89.2618 157.284 89.0853 155.795 88.9087 154.306C88.6051 154.067 88.3042 153.827 88.0005 153.588C87.5426 153.642 87.085 153.699 86.6247 153.757C86.26 153.8 85.8981 153.843 85.5334 153.886C84.801 153.97 84.0682 154.052 83.3358 154.136L82.0462 143.261L87.7247 142.588L88.3146 147.562C90.3175 147.452 92.1189 147.355 93.9203 147.258C93.9309 147.371 93.9411 147.481 93.9517 147.594C94.1738 149.419 94.3955 151.242 94.6175 153.068L94.6203 153.067Z" fill="#4B271A"/>
<path d="M117.424 155.657C117.225 153.926 117.025 152.193 116.825 150.462C116.599 148.626 116.375 146.786 116.149 144.95C116.15 144.864 116.143 144.779 116.13 144.691C116.127 144.603 116.114 144.515 116.093 144.429L121.59 143.777C121.367 141.89 121.168 140.218 120.97 138.545C122.733 138.336 124.493 138.127 126.487 137.891L127.787 148.853L122.144 149.522L122.796 155.017L117.424 155.654L117.424 155.657Z" fill="#4B271A"/>
<path d="M113.727 133.526C109.414 134.037 105.103 134.549 100.79 135.06C99.9386 135.03 99.087 135.001 98.1348 134.966L97.5225 129.803L113.851 127.867C113.632 129.778 115.305 131.615 113.727 133.526Z" fill="#4B271A"/>
<path d="M102.311 123.78C98.6146 124.219 94.9178 124.651 91.2214 125.087C91.0253 123.27 90.8292 121.452 90.6332 119.635C92.4889 119.34 94.3477 119.047 96.2035 118.752C97.876 118.553 99.5514 118.355 101.224 118.154C101.351 118.219 101.481 118.282 101.608 118.347L102.267 123.527C102.26 123.614 102.273 123.699 102.308 123.778L102.311 123.78Z" fill="#0D0C0C"/>
<path d="M131.048 126.339L136.304 125.716L136.893 130.684L131.637 131.307L131.048 126.339Z" fill="#4B271A"/>
<path d="M107.138 117.761C107.169 117.835 107.158 117.9 107.109 117.961C107.205 119.518 107.301 121.075 107.396 122.632L102.491 123.214L101.912 118.33C102.825 118.197 103.738 118.067 104.651 117.933C105.465 117.831 106.281 117.729 107.095 117.627C107.127 117.665 107.144 117.71 107.138 117.761Z" fill="#BB6635"/>
<path d="M124.689 120.901L113.702 122.204C112.43 120.717 114.272 118.244 112.033 117.038C111.394 117.117 110.756 117.198 110.117 117.277C109.125 117.439 108.132 117.601 107.138 117.761C107.144 117.71 107.127 117.665 107.095 117.627C107.086 117.55 107.077 117.473 107.062 117.4C108.725 116.98 110.389 116.563 112.03 116.149C112.034 114.889 112.037 113.771 112.041 112.65C112.613 113.964 111.59 115.792 113.353 116.726C113.688 118.268 114.027 119.81 114.346 121.285C117.852 121.142 121.284 121.002 124.715 120.862L124.686 120.901L124.689 120.901Z" fill="#EAAE6A"/>
<path d="M64.9122 139.318C64.713 137.779 64.5114 136.243 64.3122 134.704C64.2778 134.344 64.2404 133.981 64.206 133.621L64.237 133.601C64.7037 135.238 65.168 136.88 65.6987 138.752L74.9774 137.651C75.0368 135.784 75.0973 133.903 75.1554 132.025C75.1655 132.11 75.1756 132.195 75.1802 132.28C75.3088 133.389 75.4347 134.497 75.5633 135.605C75.6599 136.419 75.7616 137.23 75.861 138.044C72.2132 138.469 68.563 138.896 64.9153 139.32L64.9122 139.318Z" fill="#F4B26B"/>
<path d="M91.0277 125.118C87.3844 125.65 83.7438 126.182 80.1009 126.717C80.0763 126.534 80.0491 126.351 80.0242 126.165C83.692 125.816 87.3599 125.467 91.0277 125.118Z" fill="#3D241B"/>
<path d="M64.9122 139.318C68.5599 138.894 72.2101 138.466 75.8579 138.042C72.3179 139.399 68.6742 139.881 64.9122 139.318Z" fill="#161513"/>
<path d="M51.1011 119.034C51.1386 118.952 51.1672 118.865 51.1815 118.774L51.2846 118.776L51.3804 118.74L51.4812 118.722L51.5826 118.71L51.5949 118.72L51.925 121.433C51.9904 121.985 52.0558 122.536 52.1214 123.09C52.2512 124.184 52.3809 125.278 52.511 126.374C52.5435 126.649 52.5764 126.926 52.6116 127.199C52.6549 127.564 52.6984 127.931 52.7417 128.296C52.7635 128.48 52.7849 128.661 52.8067 128.845L53.1584 129.348C54.6055 129.171 56.0556 128.996 57.5027 128.819C57.6926 128.802 57.8821 128.782 58.0689 128.763C58.0878 128.852 58.1068 128.942 58.1233 129.034L58.097 129.071C56.2733 129.284 54.4524 129.497 52.6286 129.711C52.576 129.642 52.5583 129.564 52.576 129.478C52.5648 129.36 52.5563 129.241 52.545 129.123L52.38 128.623C52.2242 127.098 52.0657 125.574 51.9099 124.049C51.8945 123.942 51.8766 123.839 51.8612 123.732C51.6063 122.169 51.3511 120.603 51.0935 119.041L51.1011 119.034Z" fill="#F19C5D"/>
<path d="M111.859 139.067C114.497 138.615 117.135 138.166 119.863 137.698C119.896 136.734 119.93 135.757 119.968 134.782C120.208 135.758 120.446 136.733 120.687 137.708C120.75 137.862 120.815 138.016 120.879 138.172C117.879 138.55 114.879 138.928 111.879 139.306C111.872 139.226 111.868 139.146 111.862 139.066L111.859 139.067Z" fill="#C8804D"/>
<path d="M80.0215 126.165C80.046 126.348 80.0733 126.531 80.0981 126.718C80.098 126.904 80.0947 127.088 80.0946 127.274C80.1188 127.455 80.1433 127.638 80.1675 127.819C80.2164 127.996 80.2629 128.177 80.3118 128.355C80.4303 129.542 80.5516 130.729 80.6701 131.916C79.8603 132.004 79.0528 132.088 78.243 132.176C77.2208 132.208 76.1986 132.241 75.1768 132.276C75.1694 132.19 75.1621 132.105 75.152 132.02C76.8038 131.693 78.4556 131.367 80.1592 131.031C80.4784 129.361 78.5978 127.782 80.026 126.156L80.0187 126.165L80.0215 126.165Z" fill="#EAAE6A"/>
<path d="M136.109 125.077C135.89 123.254 135.671 121.431 135.449 119.608C136.991 119.459 138.536 119.306 140.078 119.157C138.815 119.532 137.556 119.909 136.313 120.279C136.246 121.85 136.176 123.462 136.106 125.078L136.109 125.077Z" fill="#161513"/>
<path d="M91.0277 125.118C87.3599 125.467 83.692 125.816 80.0242 126.165L80.0315 126.155C83.6344 125.728 87.2345 125.301 90.7881 124.88C90.7273 122.796 90.6818 121.216 90.6359 119.634C90.832 121.452 91.0281 123.269 91.2241 125.087L91.1232 125.079L91.0277 125.118Z" fill="#FDC878"/>
<path d="M59.0157 134.261C58.9374 134.234 58.8556 134.225 58.7706 134.235C58.6923 133.785 58.6167 133.335 58.5384 132.886C58.4083 131.789 58.281 130.692 58.1533 129.592C58.1353 129.416 58.1196 129.238 58.1015 129.062L58.1278 129.025C58.2247 129.022 58.3214 129.016 58.4183 129.013C58.7088 130.525 59.0017 132.033 59.3644 133.92L64.1903 133.347C64.2003 133.432 64.2186 133.516 64.2366 133.598L64.2057 133.618C62.4765 133.831 60.7473 134.045 59.0154 134.259L59.0157 134.261Z" fill="#F19C5D"/>
<path d="M75.1798 132.278C76.202 132.245 77.2242 132.213 78.2461 132.178C77.5475 132.43 76.852 132.685 76.1538 132.941C75.956 133.829 75.761 134.717 75.563 135.602C75.4344 134.494 75.3085 133.386 75.1798 132.278Z" fill="#38221B"/>
<path d="M101.915 118.333L102.494 123.216C104.194 123.015 105.795 122.825 107.399 122.635C107.425 122.804 107.45 122.97 107.476 123.14C106.74 123.219 106.007 123.295 105.271 123.374C105.087 123.395 104.903 123.412 104.719 123.431C103.988 123.506 103.255 123.582 102.524 123.658C102.441 123.615 102.356 123.572 102.273 123.529C102.054 121.803 101.835 120.075 101.614 118.349C101.713 118.343 101.816 118.339 101.915 118.333Z" fill="#D8783E"/>
<path d="M59.0157 134.261C60.7449 134.048 62.4741 133.835 64.206 133.621C64.2404 133.981 64.2778 134.344 64.3122 134.704C62.5459 134.557 60.782 134.408 59.0157 134.261Z" fill="#161513"/>
<path d="M58.1019 129.065C58.1199 129.241 58.1356 129.419 58.1537 129.595C56.3146 129.633 54.4753 129.667 52.6362 129.705C54.4599 129.491 56.2809 129.278 58.1046 129.064L58.1019 129.065Z" fill="#161513"/>
<path d="M120.685 137.709C120.444 136.733 120.206 135.758 119.965 134.783C119.907 134.297 119.85 133.815 119.787 133.283C118.046 133.353 116.444 133.415 114.842 133.48L120.032 132.864L120.221 134.455C120.233 134.559 120.251 134.662 120.266 134.769C120.347 135.38 120.425 135.993 120.506 136.604C120.524 136.704 120.541 136.802 120.558 136.903C120.601 137.171 120.642 137.441 120.685 137.709Z" fill="#F19C5D"/>
<path d="M80.6732 131.918C80.5546 130.731 80.4333 129.544 80.3148 128.357C81.2493 129.462 81.5084 130.638 80.6732 131.918Z" fill="#3D241B"/>
<path d="M140.081 119.157C138.538 119.306 136.994 119.459 135.452 119.608C135.44 119.512 135.423 119.417 135.41 119.324C135.489 119.315 135.566 119.303 135.644 119.285C137.397 119.177 139.153 119.069 140.905 118.961C140.811 119.009 140.716 119.053 140.622 119.101C140.441 119.122 140.262 119.138 140.081 119.159L140.081 119.157Z" fill="#F28646"/>
<path d="M107.476 123.137C107.45 122.97 107.425 122.801 107.399 122.632C107.303 121.075 107.208 119.518 107.112 117.961C107.233 119.684 107.354 121.411 107.478 123.134L107.476 123.137Z" fill="#F28646"/>
<path d="M134.586 147.526C134.568 148.354 134.552 149.185 134.534 150.013C133.677 149.166 133.863 148.341 134.586 147.526Z" fill="#161513"/>
<path d="M58.5387 132.889C58.617 133.338 58.6926 133.788 58.771 134.238C57.8454 133.936 57.824 133.474 58.5387 132.889Z" fill="#161513"/>
<path d="M135.15 152.139C135.257 152.505 135.362 152.87 135.47 153.239L135.15 152.139Z" fill="#161513"/>
<path d="M85.5361 153.886C85.9008 153.842 86.2628 153.8 86.6274 153.756C86.3528 154.559 85.9909 154.602 85.5361 153.886Z" fill="#161513"/>
<path d="M134.702 150.516C134.801 150.885 134.901 151.257 134.997 151.627L134.702 150.516Z" fill="#161513"/>
<path d="M137.077 158.562C137.155 158.844 137.23 159.13 137.308 159.413C137.137 159.33 136.966 159.248 136.716 159.127C136.871 158.886 136.974 158.724 137.077 158.562Z" fill="#161513"/>
<path d="M137.589 160.164C137.651 160.451 137.716 160.741 137.778 161.028C137.606 160.94 137.435 160.852 137.177 160.721C137.354 160.481 137.472 160.322 137.589 160.164Z" fill="#161513"/>
<path d="M138.882 164.76C138.971 165.036 139.062 165.314 139.15 165.59C138.99 165.528 138.833 165.469 138.58 165.374C138.701 165.129 138.79 164.946 138.882 164.76Z" fill="#161513"/>
<path d="M139.393 166.351C139.469 166.634 139.547 166.919 139.622 167.202C139.451 167.12 139.28 167.037 139.027 166.917C139.185 166.676 139.288 166.513 139.393 166.351Z" fill="#161513"/>
<path d="M139.892 167.954C139.96 168.241 140.024 168.528 140.092 168.817C139.921 168.732 139.749 168.644 139.492 168.516C139.663 168.273 139.778 168.115 139.892 167.954Z" fill="#161513"/>
<path d="M52.3876 128.616C52.4434 128.782 52.4968 128.951 52.5526 129.117C52.5117 129.147 52.4741 129.182 52.4427 129.222C52.34 129.153 52.2374 129.085 52.059 128.964C52.1849 128.83 52.2862 128.723 52.3876 128.616Z" fill="#0D0C0C"/>
<path d="M104.719 123.431C104.903 123.409 105.087 123.393 105.271 123.374C105.087 123.395 104.903 123.412 104.719 123.431Z" fill="#BB6635"/>
<path d="M120.266 134.769C120.254 134.665 120.236 134.561 120.221 134.455C120.254 134.523 120.293 134.591 120.315 134.663C120.324 134.693 120.284 134.733 120.266 134.769Z" fill="#C8804D"/>
<path d="M102.27 123.529C102.353 123.572 102.439 123.615 102.522 123.658C102.466 123.725 102.395 123.767 102.311 123.783C102.277 123.703 102.261 123.619 102.27 123.532L102.27 123.529Z" fill="#BB6635"/>
<path d="M51.8688 123.726C51.8842 123.832 51.902 123.936 51.9175 124.043C51.8843 123.974 51.8457 123.907 51.826 123.834C51.8169 123.804 51.8535 123.761 51.8688 123.726Z" fill="#DF9057"/>
<path d="M120.558 136.903C120.541 136.802 120.524 136.704 120.506 136.604C120.542 136.669 120.588 136.733 120.61 136.802C120.619 136.827 120.577 136.87 120.556 136.904L120.558 136.903Z" fill="#C8804D"/>
<path d="M52.4399 129.222C52.4713 129.182 52.5089 129.147 52.5498 129.117C52.5611 129.235 52.5696 129.354 52.5808 129.472C52.532 129.389 52.486 129.305 52.4399 129.222Z" fill="#DF9057"/>
<path d="M87.5637 46.8604L86.9313 41.5273L114.836 38.2181C114.803 40.1433 114.769 41.9658 114.737 43.7852C105.771 44.8458 96.8066 45.9033 87.8401 46.9639C87.7561 46.9349 87.6689 46.9036 87.5849 46.8746L87.5637 46.8604Z" fill="#161513"/>
<path d="M71.4956 54.577L70.816 48.8464C76.5137 48.1706 82.0387 47.5154 87.5637 46.8602L87.5849 46.8744C87.5833 46.9552 87.5873 47.0354 87.5998 47.1173C87.7983 48.9317 87.9937 50.7436 88.1922 52.558L88.2569 52.5642C84.5232 53.0376 80.7892 53.5082 77.0555 53.9816C76.9458 53.9946 76.8334 54.0079 76.7237 54.0209C74.9922 54.2152 73.2608 54.4094 71.5293 54.6036L71.4932 54.5801L71.4956 54.577Z" fill="#0D0C0C"/>
<path d="M57.9707 33.8229L58.6048 39.1697L63.9625 38.5343L64.5969 43.8839L53.8677 45.1563L52.5992 34.46L57.9707 33.8229Z" fill="#3E261C"/>
<path d="M115.593 47.4347C115.542 46.3089 115.492 45.1805 115.438 43.9496L120.815 43.3119C121.034 45.16 121.242 46.9148 121.451 48.6724L121.419 48.7095C121.331 48.6949 121.25 48.7129 121.175 48.7607C119.523 48.9233 117.871 49.083 116.219 49.2456C116.063 49.1028 115.907 48.9628 115.751 48.82L115.587 47.4381L115.593 47.4347Z" fill="#0D0C0C"/>
<path d="M29.6411 121.073C29.0106 117.422 28.3806 113.773 27.7474 110.123C27.6328 108.265 27.5212 106.41 27.4065 104.552C27.5878 104.533 27.7695 104.517 27.9535 104.498C29.5043 104.328 31.0524 104.159 32.6032 103.989C32.6139 104.079 32.6247 104.169 32.6354 104.26C32.5508 104.367 32.469 104.474 32.3841 104.579C30.8979 104.755 29.4091 104.932 27.8407 105.118L29.6385 120.278C31.3616 120.271 32.9762 120.263 34.5883 120.258L34.6029 120.382C34.5016 120.419 34.4034 120.458 34.3049 120.495C32.7481 120.685 31.1944 120.878 29.6377 121.068L29.6411 121.073Z" fill="#CF713B"/>
<path d="M115.593 47.4342C115.647 47.8949 115.702 48.3555 115.754 48.8165C115.72 48.9094 115.687 49.0024 115.653 49.0953C115.578 49.0959 115.501 49.1022 115.424 49.1113L114.851 44.2746L87.9469 47.4652L88.5537 52.5816C88.4332 52.5737 88.3127 52.5657 88.1946 52.5547C87.9961 50.7403 87.8007 48.9284 87.6022 47.114C87.6823 47.0628 87.7624 47.0116 87.8429 46.9631C96.8093 45.9025 105.773 44.845 114.74 43.7844C115.023 44.9993 115.309 46.2166 115.592 47.4315L115.593 47.4342Z" fill="#F7A865"/>
<path d="M50.1562 17.377C50.8883 17.2901 51.6184 17.2091 52.3508 17.125C51.6591 17.4823 50.9647 17.84 50.273 18.1973C50.235 17.9237 50.197 17.6502 50.1566 17.3797L50.1562 17.377Z" fill="#161513"/>
<path d="M54.821 16.8296C55.0944 16.8138 55.3681 16.8009 55.7134 16.7821C55.8125 17.0318 55.911 17.2759 56.0064 17.5176C55.6123 17.2891 55.2154 17.0609 54.821 16.8296Z" fill="#161513"/>
<path d="M30.0646 42.5599C30.3388 42.5274 30.613 42.4948 30.8871 42.4623C30.8982 42.5555 30.9117 42.6457 30.9255 42.7386C30.9577 43.0101 30.9902 43.2843 31.0224 43.5557C30.7049 43.2235 30.3844 42.889 30.067 42.5568L30.0646 42.5599Z" fill="#161513"/>
<path d="M27.9566 104.501C27.7753 104.519 27.5937 104.535 27.4096 104.554C27.4629 104.417 27.5186 104.277 27.6272 103.998C27.7934 104.25 27.8752 104.377 27.9566 104.501Z" fill="#161513"/>
<path d="M115.421 49.109C115.498 49.0998 115.573 49.0966 115.65 49.0929C115.722 49.1317 115.742 49.1904 115.713 49.2663C117.388 49.2594 119.064 49.2525 120.69 49.246C120.999 49.6959 121.308 50.1458 121.617 50.593C121.629 50.6945 121.647 50.7953 121.661 50.8964C121.794 51.8956 121.923 52.8924 122.056 53.8915L122.103 53.9415C122.103 53.9415 122.063 53.9991 122.062 53.9964C123.79 54.0278 125.518 54.0593 127.259 54.0891L129.116 69.7429L120.445 70.7711C116.058 71.2859 111.67 71.7979 107.282 72.3127C107.294 72.4169 107.309 72.518 107.324 72.6219C107.327 72.7161 107.351 72.8022 107.402 72.8823L107.304 72.8718C107.35 74.39 107.399 75.9051 107.435 77.0992C105.68 77.5882 104.071 78.0376 102.458 78.4847L102.47 78.4693C102.478 80.2174 102.488 81.9679 102.495 83.716C99.2936 84.1068 96.0923 84.4976 92.8914 84.8911C92.4031 83.1889 91.9179 81.4892 91.4297 79.787L91.485 79.8083C89.8368 79.8369 88.1858 79.8659 86.5958 79.8931C86.2824 78.3287 85.9646 76.751 85.6496 75.1729C85.5449 75.1575 85.4429 75.1418 85.3379 75.1236C80.2225 75.6691 75.1071 76.2146 69.9886 76.7576C65.8441 77.0017 61.6441 76.8491 57.7096 78.5364L57.7158 78.4717C57.7377 80.1096 57.7595 81.7475 57.7818 83.5299L52.5749 84.1474L51.3691 73.9803C53.5825 73.3953 55.5826 72.8634 57.5857 72.3338C57.4406 69.0701 57.293 65.8094 57.1399 62.3852C61.1596 61.9085 65.1728 61.5411 69.1482 60.925C72.0834 60.4713 74.972 59.6949 77.8806 59.0636C77.863 58.9851 77.8624 58.9101 77.8838 58.8324C77.842 57.3081 77.8003 55.7838 77.7605 54.3232C81.3426 53.7204 84.7996 53.1409 88.2562 52.5585L88.1915 52.5523C88.312 52.5603 88.4298 52.5685 88.5506 52.5792C97.5084 51.4224 106.463 50.2631 115.421 49.1062L115.421 49.109Z" fill="#E19D60"/>
<path d="M54.2358 95.8789C54.0394 94.2228 53.843 92.5666 53.6463 90.9078C53.7989 90.8813 53.9514 90.8549 54.1037 90.8257L54.6496 95.4294L59.6016 94.8422L59.0312 90.0328C66.1541 89.088 73.2765 88.1404 80.3966 87.196L86.1766 86.5105L88.7237 107.988C86.8013 108.377 85.1614 108.711 83.5188 109.045C81.425 109.232 79.3155 109.31 77.2404 109.631C72.0577 110.429 66.8937 111.339 61.7219 112.205C61.5864 112.024 61.4509 111.843 61.3154 111.661C59.7009 111.716 58.0836 111.772 56.353 111.833C56.2555 111.01 56.1806 110.285 56.0838 109.562C55.4677 105 54.8485 100.436 54.2297 95.8741L54.2358 95.8789ZM81.8084 92.0668C81.7086 91.9758 81.6085 91.882 81.506 91.7912C77.7612 92.2409 74.0164 92.6906 70.2743 93.1399C68.6515 93.5242 67.0315 93.9082 65.4088 94.2925L65.4254 94.2683C64.923 98.1205 65.3305 101.862 66.7691 105.481C66.8476 105.464 66.9257 105.465 67.006 105.486C70.5033 105.247 74.0994 105.677 77.3712 103.935L77.3592 103.95C77.4885 102.508 77.6175 101.064 77.741 99.6672C79.1028 98.5131 81.4096 100.122 82.502 98.0321L82.4901 98.0725C82.869 95.9922 83.1876 93.9191 81.7732 92.0515L81.8029 92.0675L81.8084 92.0668Z" fill="#C9814E"/>
<path d="M101.915 118.333C101.816 118.339 101.713 118.343 101.614 118.349C101.487 118.284 101.357 118.221 101.229 118.156C97.6913 118.472 94.1528 118.786 90.6146 119.103C90.4079 117.454 90.2012 115.804 89.9945 114.155C89.9769 114.054 89.9564 113.951 89.9388 113.85L90.203 113.568L95.5388 112.936C95.1722 111.111 94.862 109.574 94.5546 108.036C94.5374 107.938 94.5202 107.84 94.5058 107.742L94.4838 107.745C94.7106 107.195 95.148 106.64 95.1257 106.1C95.008 102.95 94.7847 99.8011 94.5974 96.6507C94.7811 96.629 94.9648 96.6072 95.1485 96.5854C95.7904 97.3323 96.3357 97.2648 96.7885 96.3937L98.7106 96.1657C100.309 96.2542 101.91 96.3452 103.575 96.4369C103.905 97.9493 104.237 99.4809 104.568 101.01C104.946 102.722 105.322 104.435 105.7 106.15C105.755 106.213 105.778 106.288 105.768 106.373C107.493 106.352 109.214 106.331 110.866 106.311C111.239 108.026 111.59 109.645 111.94 111.263L111.94 111.194C111.938 111.313 111.935 111.433 111.932 111.55C111.967 111.916 112.005 112.281 112.04 112.647C112.037 113.768 112.033 114.886 112.03 116.146C110.388 116.561 108.725 116.977 107.062 117.397C106.257 117.576 105.456 117.754 104.651 117.931C103.738 118.064 102.824 118.194 101.912 118.328L101.915 118.333Z" fill="#E09C5F"/>
<path d="M57.5918 72.339C55.5887 72.8685 53.5883 73.3977 51.3753 73.9855C51.7645 77.2676 52.1726 80.7087 52.581 84.1526C52.5798 84.2834 52.5814 84.4139 52.5799 84.542L52.5913 84.638C52.6401 86.3394 52.6887 88.0381 52.743 89.9029L50.1738 90.2076C49.5588 90.1332 48.9435 90.056 48.3652 89.9856L45.9212 69.3771C47.7781 68.8344 49.4553 68.3463 51.1321 67.8555L50.5582 63.016L56.4012 62.323L57.5888 72.3366L57.5918 72.339Z" fill="#C8804D"/>
<path d="M57.5075 128.813C56.0604 128.99 54.6103 129.165 53.1632 129.342C53.0461 129.175 52.9287 129.005 52.8115 128.839C52.7898 128.655 52.7683 128.474 52.7465 128.29C52.7033 127.926 52.6597 127.558 52.6164 127.193C52.5839 126.919 52.5511 126.642 52.5158 126.368C52.3861 125.274 52.2563 124.18 52.1263 123.084C52.0609 122.532 51.9955 121.981 51.9299 121.427C51.8226 120.523 51.7098 119.618 51.5997 118.714L51.5878 118.707C51.5192 118.715 51.451 118.726 51.3828 118.737L51.287 118.773L51.1839 118.772C51.1317 118.683 51.0771 118.598 51.0249 118.51C49.5205 118.39 48.016 118.271 46.5198 118.151L44.1392 98.0776C45.2964 97.754 46.2032 97.4991 47.1076 97.2473C47.2968 97.2249 47.486 97.2024 47.6752 97.18C47.8672 97.2517 48.0592 97.3235 48.2485 97.3956C48.9654 102.596 49.6826 107.8 50.3994 113.001L50.3657 112.974C52.0599 112.934 53.7568 112.894 55.6394 112.849C55.7955 114.165 55.9496 115.465 56.1037 116.764C56.2772 117.383 56.4483 118.005 56.6218 118.624C56.6425 118.822 56.6632 119.02 56.6838 119.218C56.9599 122.413 57.2363 125.611 57.5096 128.807L57.5075 128.813Z" fill="#C8804D"/>
<path d="M85.4773 80.7545C76.6099 81.8061 67.7452 82.8574 58.8778 83.909C58.6872 82.3022 58.497 80.6982 58.3334 79.319C59.5123 78.826 60.3811 78.4616 61.2475 78.1003C61.6149 78.0567 61.9823 78.0132 62.3497 77.9696C62.8959 78.6834 63.3511 78.6294 63.7152 77.8077C63.8989 77.7859 64.0854 77.7638 64.2691 77.742C65.5262 77.7681 66.7902 77.899 68.0351 77.7986C73.8606 77.333 79.6845 76.8064 85.5055 76.3023L85.5909 76.2727L85.6081 76.5821C85.6479 77.2225 85.6908 77.8653 85.7306 78.5056C85.6443 79.2555 85.5612 80.0077 85.4749 80.7576L85.4773 80.7545Z" fill="#38221B"/>
<path d="M29.6411 121.073C31.1978 120.883 32.7515 120.69 34.3083 120.5C34.4281 120.572 34.5478 120.644 34.6645 120.714C35.0368 122.446 35.4091 124.179 35.7787 125.912C35.8625 126.033 35.946 126.151 36.1106 126.39C36.2151 126.122 36.2683 125.985 36.3216 125.848C36.5053 125.826 36.6897 125.809 36.8737 125.79C38.0926 125.893 39.3092 125.999 40.6743 126.115L41.9089 136.527L36.5512 137.162L35.9051 131.714L30.9668 132.299L29.6356 121.074L29.6411 121.073Z" fill="#161513"/>
<path d="M117.192 71.4741C121.33 71.2392 125.467 71.0071 129.751 70.7633L130.305 75.4383L108.51 78.0231C108.304 76.2874 108.098 74.549 107.892 72.8134C107.881 72.7256 107.871 72.6406 107.861 72.5529L111.135 72.0728C113.155 71.8722 115.172 71.6747 117.192 71.4741Z" fill="#38221B"/>
<path d="M61.3242 111.666C61.4597 111.847 61.5952 112.028 61.7307 112.21C61.9124 113.765 62.094 115.32 62.2729 116.875C62.273 116.97 62.2707 117.067 62.2707 117.162C61.5354 117.268 60.8029 117.375 60.0676 117.481C58.8948 117.604 57.7193 117.727 56.5465 117.849C56.4776 117.479 56.406 117.109 56.3368 116.737C56.1644 115.283 55.9945 113.827 55.8249 112.374C55.9336 112.352 56.0447 112.328 56.1534 112.307C57.8771 112.094 59.6008 111.881 61.3215 111.666L61.3242 111.666Z" fill="#161513"/>
<path d="M117.398 110.627C115.58 110.818 113.759 111.009 111.941 111.199L111.941 111.269C111.711 109.422 111.48 107.572 111.25 105.726C111.262 105.641 111.295 105.565 111.345 105.497C113.232 105.371 115.119 105.247 117.009 105.12C117.14 106.957 117.269 108.793 117.401 110.629L117.398 110.627Z" fill="#211614"/>
<path d="M91.9135 83.328C91.8394 83.993 91.7681 84.6576 91.6792 85.4551L86.7821 86.0358L86.1786 80.9468L91.5061 80.315C91.5826 80.6785 91.6591 81.042 91.7356 81.4055C91.776 81.676 91.8137 81.9468 91.8541 82.2173C91.873 82.5876 91.8919 82.958 91.9138 83.3307L91.9135 83.328Z" fill="#38221B"/>
<path d="M108.27 78.3269L108.919 83.7943C106.923 83.728 105.256 83.6726 103.59 83.6172C103.295 82.5399 103.003 81.4623 102.708 80.3823C102.654 79.9244 102.6 79.4638 102.545 79.0059C104.454 78.7795 106.362 78.5532 108.27 78.3269Z" fill="#38221B"/>
<path d="M57.5919 72.3389L56.4043 62.3253L50.5613 63.0183C50.7599 64.6936 50.9476 66.2757 51.1352 67.8578C51.0539 67.8758 50.9716 67.8855 50.8884 67.8871L50.239 62.4114C57.5134 61.5487 64.8234 60.6818 72.1334 59.8149C72.218 59.8243 72.3039 59.8225 72.3883 59.8069L77.8898 59.0711C74.9812 59.7024 72.0953 60.4784 69.1574 60.9325C65.182 61.5485 61.1688 61.916 57.1492 62.3927C57.3022 65.8168 57.447 69.0778 57.5949 72.3413L57.5919 72.3389Z" fill="#EAAE6A"/>
<path d="M47.1055 97.253C46.1987 97.508 45.2943 97.7598 44.1371 98.0833L46.5177 118.157C48.0136 118.274 49.5184 118.396 51.0229 118.515L46.1175 119.097C45.2477 111.762 44.3899 104.529 43.5321 97.2959C44.7233 97.2825 45.9173 97.2688 47.1086 97.2555L47.1055 97.253Z" fill="#DF9057"/>
<path d="M110.807 83.353C117.579 82.6389 124.349 81.9251 131.121 81.211C131.102 81.2687 131.098 81.3276 131.114 81.3869C131.208 83.0719 131.302 84.7541 131.396 86.439C131.059 84.9608 130.723 83.4825 130.224 81.2978L110.844 83.5961C110.835 83.5138 110.823 83.4346 110.807 83.353Z" fill="#DF9057"/>
<path d="M50.8853 67.8848C50.9686 67.8833 51.0508 67.8736 51.1321 67.8556C49.4553 68.3464 47.7781 68.8345 45.9212 69.3772L48.3652 89.9856C48.9435 90.0561 49.5588 90.1332 50.1738 90.2077C50.1839 90.2927 50.194 90.3777 50.2095 90.462L47.8268 90.7446L45.2345 68.8859C47.1655 68.5456 49.0256 68.2166 50.8857 67.8876L50.8853 67.8848Z" fill="#DF9057"/>
<path d="M83.5277 109.049C85.1675 108.716 86.8102 108.382 88.7326 107.993C87.9932 101.757 87.2508 95.4976 86.5081 89.235C86.6397 89.2194 86.7741 89.2035 86.906 89.1906C87.704 95.5913 88.5016 101.989 89.2969 108.39L89.3254 108.373C87.5058 108.597 85.6833 108.821 83.8637 109.046C83.7527 109.048 83.639 109.05 83.5277 109.049Z" fill="#DF9057"/>
<path d="M54.1067 90.8282C53.9542 90.8546 53.8016 90.881 53.6494 90.9102C56.58 90.3708 59.508 89.8095 62.445 89.2999C63.9354 89.0425 65.4423 88.8777 66.9386 88.6697C67.0397 88.6549 67.1405 88.6374 67.2417 88.6226C71.6194 88.0701 76.0002 87.52 80.3779 86.9674C80.387 87.0442 80.3964 87.1237 80.4028 87.2008C73.28 88.1456 66.1575 89.0932 59.0374 90.0377C57.3949 90.302 55.7523 90.5663 54.1067 90.8282Z" fill="#F19C5D"/>
<path d="M35.7818 125.914C35.4095 124.182 35.0372 122.449 34.6676 120.716C34.6464 120.607 34.6279 120.498 34.6063 120.387C34.6063 120.387 34.5917 120.263 34.5914 120.261C36.144 120.129 37.6997 120.001 39.2526 119.872C39.4915 119.846 39.7304 119.821 39.9723 119.798L40.6305 125.347L36.8795 125.792C36.6958 125.814 36.5114 125.83 36.3274 125.849C36.1464 125.871 35.9655 125.892 35.7845 125.914L35.7818 125.914ZM36.0249 125.315L39.9514 124.85L39.409 120.276L35.4825 120.742L36.0249 125.315Z" fill="#DF9057"/>
<path d="M93.2943 96.7995L92.6206 91.1182L103.75 89.7983C103.976 91.7067 104.201 93.6014 104.426 95.4988C104.34 95.5006 104.254 95.5025 104.171 95.504C103.822 93.7325 103.475 91.958 103.126 90.1865L93.1536 91.3691L93.7841 96.6858C93.6219 96.7245 93.4593 96.7604 93.2971 96.7991L93.2943 96.7995Z" fill="#D8783E"/>
<path d="M93.2943 96.7998C93.4565 96.7611 93.6191 96.7251 93.7813 96.6864C94.0526 96.6765 94.3209 96.6642 94.5922 96.6542C94.7795 99.8046 95.0052 102.95 95.1206 106.104C95.1401 106.644 94.7027 107.199 94.4786 107.748C94.0849 104.099 93.6884 100.451 93.2943 96.7998Z" fill="#E19D60"/>
<path d="M39.9723 119.798C39.7335 119.823 39.4946 119.849 39.2526 119.872C38.8481 116.461 38.4436 113.05 38.055 109.773C36.3939 109.67 34.8308 109.572 33.2676 109.474L33.2749 109.464L38.6683 108.825L39.9696 119.798L39.9723 119.798Z" fill="#D8783E"/>
<path d="M120.449 70.7763L129.119 69.7481L127.263 54.0943C125.518 54.0621 123.793 54.0303 122.066 54.0016C123.837 53.7915 125.608 53.5815 127.473 53.3604L129.44 69.9436L120.476 71.0066C120.467 70.9298 120.458 70.853 120.452 70.7787L120.449 70.7763Z" fill="#FDC878"/>
<path d="M110.807 83.3531C110.823 83.4347 110.835 83.5139 110.844 83.5962C110.389 83.6502 109.934 83.7041 109.476 83.7584C109.393 83.8572 109.314 83.9585 109.231 84.06L111.746 105.266C113.672 105.207 115.342 105.157 117.012 105.103L117.003 105.118C115.116 105.245 113.229 105.368 111.342 105.495L108.745 83.5977L110.805 83.3535L110.807 83.3531Z" fill="#F7A865"/>
<path d="M61.3242 111.666C59.6005 111.878 57.8768 112.091 56.1562 112.306C55.5181 106.832 54.8797 101.355 54.2389 95.8812C54.8577 100.443 55.4769 105.007 56.093 109.569C56.1898 110.292 56.2644 111.014 56.3622 111.84C58.0929 111.779 59.7101 111.724 61.3246 111.668L61.3242 111.666Z" fill="#F7A865"/>
<path d="M47.1055 97.253C45.9142 97.2664 44.7202 97.2801 43.529 97.2935C45.0421 97.1335 46.5548 96.9708 48.0679 96.8108C48.1771 96.8173 48.2867 96.8265 48.3959 96.8331C49.0632 102.226 49.7303 107.616 50.3976 113.009C49.6808 107.808 48.9636 102.605 48.2467 97.4041C48.0547 97.3323 47.8627 97.2605 47.6734 97.1884C47.4842 97.2109 47.295 97.2333 47.1058 97.2558L47.1055 97.253Z" fill="#F7A865"/>
<path d="M108.27 78.3265C106.362 78.5529 104.454 78.7792 102.545 79.0055C102.521 78.8276 102.498 78.6524 102.474 78.4745L102.462 78.4899C104.269 78.2756 106.076 78.0613 107.896 77.8454L107.307 72.877L107.406 72.8875C107.57 72.8626 107.731 72.8379 107.895 72.8129C108.1 74.5485 108.307 76.2869 108.512 78.0226C108.433 78.1238 108.353 78.225 108.273 78.3262L108.27 78.3265Z" fill="#161513"/>
<path d="M120.449 70.7762C120.455 70.8533 120.462 70.9304 120.473 71.0041C119.38 71.1616 118.286 71.3164 117.192 71.4739C115.172 71.6745 113.155 71.872 111.135 72.0726C109.852 72.1553 108.568 72.2352 107.285 72.3179C111.673 71.8031 116.061 71.291 120.449 70.7762Z" fill="#F4B26B"/>
<path d="M105.698 106.156C105.32 104.444 104.945 102.731 104.566 101.016C104.544 99.3501 104.519 97.6875 104.496 96.0219C104.897 99.3999 105.298 102.778 105.698 106.156Z" fill="#F4B26B"/>
<path d="M61.2505 78.1029C60.3845 78.467 59.5154 78.8287 58.3365 79.3216C58.5001 80.7008 58.6903 82.3048 58.8808 83.9116C58.7026 83.9327 58.5244 83.9539 58.3431 83.9726C58.3604 83.8843 58.3428 83.8058 58.2898 83.7342C58.0988 81.9829 57.9102 80.2285 57.7192 78.4772L57.713 78.5419C58.8913 78.3966 60.0694 78.2486 61.2478 78.1032L61.2505 78.1029Z" fill="#211614"/>
<path d="M104.499 96.0213C104.522 97.6869 104.546 99.3495 104.569 101.015C104.237 99.4863 103.903 97.955 103.576 96.4422C101.908 96.3508 100.309 96.2596 98.7113 96.1711C100.531 95.9497 102.354 95.7252 104.174 95.5038C104.26 95.5019 104.343 95.5004 104.429 95.4985C104.452 95.6737 104.476 95.8461 104.499 96.0213Z" fill="#E19D60"/>
<path d="M85.7357 78.5021C85.6959 77.8617 85.6531 77.2189 85.6133 76.5786C85.6371 76.5452 85.6853 76.5061 85.6793 76.479C85.6651 76.4056 85.6264 76.3379 85.5961 76.2692L85.5106 76.2988C85.5254 76.1191 85.5433 75.9418 85.5582 75.7621C85.5906 75.5664 85.6226 75.3679 85.655 75.1722C85.9728 76.75 86.2879 78.3281 86.6013 79.8925C88.1941 79.8649 89.8423 79.8363 91.4905 79.8076C89.6993 80.084 87.9108 80.3601 86.1195 80.6364C85.9905 79.9233 85.8614 79.2101 85.7354 78.4993L85.7357 78.5021Z" fill="#F4B26B"/>
<path d="M57.7192 78.4768C57.9102 80.2281 58.0988 81.9825 58.2898 83.7338C57.8347 83.835 57.3823 83.936 56.9275 84.0399C56.3922 84.0979 55.8565 84.153 55.3239 84.2106C54.5773 84.2686 53.8331 84.3235 53.0864 84.3815C52.9176 84.4349 52.7488 84.4882 52.583 84.544C52.5842 84.4132 52.5826 84.2827 52.5841 84.1546C54.295 83.9517 56.006 83.7488 57.791 83.5371C57.7687 81.7547 57.7469 80.1168 57.725 78.4789L57.7192 78.4768Z" fill="#FDC878"/>
<path d="M92.8975 84.8959C96.0988 84.5051 99.3001 84.1144 102.501 83.7208C102.677 83.7083 102.851 83.696 103.028 83.6834L103.11 83.6541C99.5422 84.1635 95.9771 84.6753 92.409 85.1846C92.5726 85.0874 92.7339 84.9932 92.8975 84.8959Z" fill="#FDC878"/>
<path d="M111.247 105.723C111.477 107.57 111.707 109.419 111.938 111.266C111.587 109.648 111.237 108.029 110.864 106.313C109.212 106.334 107.49 106.355 105.766 106.376C107.592 106.159 109.418 105.943 111.244 105.723L111.247 105.723Z" fill="#FDC878"/>
<path d="M94.5003 107.743C94.5175 107.841 94.5346 107.939 94.5491 108.037C92.967 108.225 91.3822 108.413 89.6136 108.622L90.2002 113.569C90.1113 113.663 90.025 113.756 89.9361 113.85L89.9054 113.826C89.7121 112.008 89.5184 110.188 89.3224 108.37L89.2938 108.388C91.0285 108.174 92.7629 107.957 94.4975 107.743L94.5003 107.743Z" fill="#F7A865"/>
<path d="M92.8975 84.8959C92.7339 84.9931 92.573 85.0901 92.409 85.1846C92.2437 84.5647 92.0788 83.9475 91.9162 83.3272C91.8973 82.9569 91.8784 82.5865 91.8565 82.2138C91.8161 81.9433 91.7784 81.6725 91.738 81.402C91.6615 81.0385 91.585 80.675 91.5085 80.3115C91.485 80.1363 91.459 79.9642 91.4355 79.7891C91.9237 81.4912 92.4089 83.191 92.8972 84.8931L92.8975 84.8959Z" fill="#F4B26B"/>
<path d="M131.114 81.3873C131.098 81.3279 131.1 81.2694 131.121 81.2113C132.895 80.9841 134.673 80.7566 136.448 80.5295C136.488 80.6359 136.528 80.7396 136.572 80.8457C136.599 81.3818 136.629 81.9204 136.657 82.4593C136.743 83.5781 136.828 84.6968 136.913 85.8156C136.855 85.8364 136.793 85.8576 136.735 85.8785L136.673 85.7829L136.082 80.7981L131.116 81.3869L131.114 81.3873Z" fill="#B8714B"/>
<path d="M72.3855 59.8072C72.3012 59.8227 72.2183 59.827 72.1307 59.8152C71.9303 58.0789 71.7296 56.3398 71.532 54.6032C73.2635 54.409 74.995 54.2148 76.7264 54.0205C75.1487 54.3383 73.5709 54.6561 71.8192 55.0085L72.3883 59.8068L72.3855 59.8072Z" fill="#F28646"/>
<path d="M80.4025 87.1979C80.3934 87.1211 80.3839 87.0416 80.3776 86.9645L86.5524 86.2322L86.9029 89.188C86.7713 89.2036 86.637 89.2196 86.505 89.2325C86.4085 88.4181 86.3119 87.6037 86.1825 86.5124L80.4025 87.1979Z" fill="#F7A865"/>
<path d="M55.8246 112.371C55.9969 113.824 56.1669 115.28 56.3365 116.734C56.2576 116.749 56.1812 116.761 56.1016 116.77L55.6373 112.855C53.7547 112.9 52.0578 112.94 50.3636 112.979C52.1831 112.778 54.0051 112.573 55.8246 112.371Z" fill="#F7A865"/>
<path d="M50.2123 90.4615C50.1967 90.3771 50.1839 90.2924 50.1766 90.2071C51.0266 90.1063 51.8766 90.0055 52.7458 89.9024C52.6914 88.0376 52.6429 86.3389 52.5941 84.6375C52.8067 86.4307 53.0194 88.2239 53.2421 90.1022L50.2123 90.4615Z" fill="#F7A865"/>
<path d="M121.617 50.5958C121.309 50.1486 121.003 49.7011 120.69 49.2488C119.064 49.2553 117.389 49.2622 115.713 49.269C115.881 49.2602 116.05 49.2513 116.219 49.2424C117.87 49.0799 119.522 48.9201 121.174 48.7576C121.298 49.1933 121.422 49.6291 121.546 50.0676C121.567 50.2431 121.594 50.4206 121.617 50.5958Z" fill="#FDC878"/>
<path d="M102.708 80.3823C103.003 81.4596 103.295 82.5372 103.59 83.6172C103.43 83.6306 103.267 83.6415 103.108 83.6549L103.025 83.6842C102.92 82.5845 102.814 81.482 102.708 80.3823Z" fill="#161513"/>
<path d="M32.3874 104.584C32.472 104.477 32.5539 104.37 32.6388 104.265C32.8336 105.908 33.0314 107.553 33.2289 109.195C33.147 109.207 33.0644 109.214 32.9809 109.213C32.7841 107.671 32.5842 106.127 32.3874 104.584Z" fill="#F28646"/>
<path d="M85.7358 78.502C85.8648 79.2152 85.9939 79.9284 86.1199 80.6392C85.9049 80.6786 85.6923 80.7149 85.4773 80.7543C85.5636 80.0044 85.6468 79.2522 85.733 78.5023L85.7358 78.502Z" fill="#211614"/>
<path d="M56.9275 84.04C57.3826 83.9388 57.8347 83.8351 58.2898 83.7339C58.3428 83.8055 58.3607 83.8867 58.3431 83.9723C57.8703 83.995 57.4003 84.0173 56.9275 84.04Z" fill="#B8714B"/>
<path d="M121.547 50.0676C121.423 49.6319 121.299 49.1961 121.174 48.7576C121.249 48.7098 121.331 48.6918 121.418 48.7064C121.461 49.1602 121.504 49.6139 121.546 50.0649L121.547 50.0676Z" fill="#E19D60"/>
<path d="M32.9809 109.213C33.0644 109.214 33.147 109.207 33.2289 109.195C33.2452 109.284 33.2614 109.374 33.2776 109.464L33.2703 109.473C33.174 109.387 33.0776 109.302 32.9809 109.213Z" fill="#D8783E"/>
<path d="M48.3983 96.8297C48.2891 96.8232 48.1796 96.8139 48.0704 96.8074C48.131 96.7557 48.1916 96.704 48.2576 96.6517C48.309 96.7096 48.3525 96.7712 48.3983 96.8297Z" fill="#DF9057"/>
<path d="M30.9258 42.7416C30.9148 42.6484 30.9013 42.5582 30.8875 42.4653C30.9251 42.5248 30.971 42.5833 30.9928 42.6503C31.0006 42.6688 30.9472 42.7113 30.9234 42.7447L30.9258 42.7416Z" fill="#211614"/>
<path d="M136.452 80.5898C136.496 80.7209 136.539 80.8548 136.585 80.9855C136.629 81.656 136.675 82.3235 136.718 82.994C136.836 84.3897 136.954 85.7827 137.072 87.1784L137.138 87.1205C137.643 91.262 138.148 95.4034 138.653 99.5449C138.875 101.418 139.094 103.288 139.313 105.161C139.402 105.907 139.49 106.653 139.581 107.398C139.676 107.587 139.771 107.773 139.862 107.963C141.691 107.746 143.517 107.526 145.346 107.31C144.251 98.0774 143.156 88.8425 142.061 79.6104C140.193 79.9377 138.321 80.2653 136.453 80.5925L136.452 80.5898Z" fill="#161513"/>
<path d="M124.717 120.861C121.286 121.001 117.852 121.142 114.349 121.285C114.027 119.81 113.691 118.268 113.355 116.726C114.819 116.524 116.283 116.323 117.746 116.119C117.763 116.214 117.78 116.312 117.797 116.407C122.699 116.007 127.6 115.606 132.502 115.2C133.127 115.148 133.747 115.055 134.449 114.972L135.588 124.577L126.509 125.654C125.865 123.923 125.291 122.392 124.72 120.858L124.717 120.861Z" fill="#E09C5F"/>
<path d="M135.644 119.285C135.566 119.303 135.489 119.314 135.41 119.324C135.438 119.209 135.466 119.097 135.494 118.983C135.545 119.083 135.596 119.185 135.647 119.285L135.644 119.285Z" fill="#C9814E"/>
<path d="M109.476 83.7585C109.931 83.7045 110.387 83.6505 110.844 83.5962C117.348 82.8249 123.852 82.0536 130.224 81.2979C130.723 83.4827 131.059 84.9609 131.396 86.4392C133.155 86.2194 134.912 86.0028 136.671 85.7831L136.732 85.8787C137.373 91.4248 138.011 96.9713 138.652 102.517C131.527 103.368 124.404 104.221 117.278 105.072L117.146 105.079L117.016 105.106C115.345 105.156 113.674 105.207 111.749 105.269C110.915 98.2328 110.074 91.1476 109.234 84.0625C109.317 83.9609 109.397 83.8625 109.48 83.7637L109.476 83.7585ZM114.99 88.1206L115.016 88.1009C114.472 91.958 115.07 95.6908 116.269 99.3523C117.027 99.2735 117.783 99.1951 118.541 99.1163C121.359 98.732 124.177 98.3477 126.996 97.9634C127.047 97.899 127.097 97.8346 127.148 97.7702C126.737 94.2099 126.329 90.6492 125.917 87.0889C125.835 87.1181 125.758 87.105 125.69 87.0491C122.123 87.4053 118.557 87.7616 114.99 88.1179L114.99 88.1206Z" fill="#C8804D"/>
<path d="M117.278 105.069C124.404 104.218 131.526 103.365 138.652 102.515C138.863 104.25 139.075 105.985 139.286 107.717C132.22 108.555 125.151 109.393 117.893 110.254L117.278 105.069Z" fill="#E09C5F"/>
<path d="M117.743 116.119C116.28 116.321 114.816 116.522 113.353 116.726C111.591 115.795 112.614 113.966 112.041 112.652C112.006 112.287 111.968 111.922 111.933 111.556C113.6 111.358 115.265 111.161 117.129 110.94L117.744 116.122L117.743 116.119Z" fill="#C8804D"/>
<path d="M111.859 139.066C111.866 139.146 111.872 139.226 111.876 139.306L87.7527 142.167L87.1398 136.999C87.4643 138.539 87.7892 140.083 88.1662 141.879L111.859 139.069L111.859 139.066Z" fill="#F19C5D"/>
<path d="M116.13 144.691C116.032 144.622 115.933 144.556 115.836 144.487C115.917 144.446 116.001 144.428 116.093 144.428C116.114 144.515 116.127 144.602 116.13 144.691Z" fill="#7B412B"/>
<path d="M97.3365 146.664C102.452 146.052 107.568 145.442 112.684 144.83C112.928 146.842 113.17 148.854 113.414 150.866C108.296 151.462 103.179 152.061 98.0583 152.657C97.8185 150.658 97.5763 148.663 97.3365 146.664Z" fill="#BF4033"/>
<path d="M56.6817 119.223C56.6611 119.026 56.6404 118.828 56.6197 118.63C56.6859 118.461 56.7493 118.292 56.8154 118.123C58.526 118.034 60.2397 117.948 61.8427 117.866C62.2763 119.647 62.6669 121.252 63.0578 122.86L63.0149 122.921L62.9446 122.89L84.2686 120.362C84.3601 120.406 84.198 120.328 84.0361 120.253C84.3932 120.169 84.7502 120.085 85.1073 120.001L85.3879 119.976C87.1561 119.763 88.9244 119.551 90.6926 119.338C92.5299 119.146 94.3672 118.953 96.2045 118.76C94.3484 119.052 92.4899 119.348 90.6342 119.643C90.6797 121.222 90.7252 122.802 90.7863 124.888C87.2328 125.31 83.6326 125.737 80.0297 126.164C78.6015 127.79 80.4821 129.369 80.163 131.039C78.4594 131.375 76.8076 131.701 75.1558 132.028C75.0952 133.909 75.0375 135.79 74.9777 137.654L65.699 138.755C65.1683 136.882 64.7016 135.244 64.2373 133.603C64.219 133.519 64.2037 133.438 64.1909 133.353C64 131.744 63.8088 130.131 63.604 128.404L58.419 129.019C58.322 129.022 58.2254 129.028 58.1285 129.031C58.1123 128.941 58.0933 128.852 58.074 128.759C57.6081 125.581 57.1449 122.402 56.6793 119.226L56.6817 119.223Z" fill="#E09C5F"/>
<path d="M96.2065 118.754C94.3692 118.947 92.5319 119.14 90.6947 119.333C90.6393 119.264 90.6134 119.186 90.6143 119.1C94.1524 118.783 97.6909 118.469 101.229 118.153C99.5565 118.351 97.8812 118.55 96.2089 118.751L96.2065 118.754Z" fill="#FDC878"/>
<path d="M104.654 117.935C105.459 117.757 106.26 117.578 107.065 117.402C107.074 117.479 107.086 117.555 107.098 117.629C106.284 117.731 105.468 117.833 104.654 117.935Z" fill="#F4B26B"/>
<path d="M56.6817 119.223C57.1476 122.401 57.6108 125.58 58.0764 128.756C57.8866 128.773 57.697 128.793 57.5099 128.809C57.2339 125.614 56.9575 122.416 56.6841 119.22L56.6817 119.223Z" fill="#DF9057"/>
<path d="M51.5973 118.717C51.7046 119.622 51.8174 120.526 51.9274 121.43C51.8201 120.525 51.7073 119.621 51.5973 118.717Z" fill="#DF9057"/>
<path d="M51.3803 118.74C51.4489 118.732 51.5171 118.721 51.5853 118.71L51.4812 118.722L51.3803 118.74Z" fill="#DF9057"/>
<path d="M58.4186 129.016L63.6036 128.401C63.8085 130.128 63.9994 131.738 64.1906 133.35C62.5673 133.542 60.9441 133.735 59.3648 133.922C59.0023 132.038 58.7091 130.527 58.4186 129.016Z" fill="#C9814E"/>
<path d="M87.8405 46.9664C87.7604 47.0176 87.6802 47.0688 87.5998 47.1173C87.5904 47.0377 87.5806 46.9555 87.5849 46.8744C87.669 46.9033 87.7561 46.9347 87.8402 46.9636L87.8405 46.9664Z" fill="#211614"/>
<path d="M72.3855 59.8074L71.8165 55.009C73.5709 54.6564 75.1459 54.3389 76.7237 54.0211C76.8334 54.0081 76.9458 53.9948 77.0555 53.9818C77.3309 55.6007 77.609 57.2194 77.8844 58.8383C77.8658 58.9156 77.8639 58.9937 77.8813 59.0695C76.0474 59.3148 74.2136 59.5601 72.3797 59.8054L72.3855 59.8074Z" fill="#BB6635"/>
<path d="M77.8872 58.8378C77.6117 57.2189 77.3336 55.6003 77.0582 53.9813C80.7919 53.5079 84.5259 53.0373 88.2596 52.5639C84.803 53.1462 81.3487 53.7255 77.7666 54.3283C77.8064 55.7889 77.8482 57.3132 77.8899 58.8375L77.8872 58.8378Z" fill="#FDC878"/>
<path d="M116.219 49.2425C116.05 49.2514 115.881 49.2602 115.713 49.2691C115.743 49.1933 115.722 49.1346 115.651 49.0957C115.684 49.0028 115.718 48.9099 115.751 48.8169C115.907 48.9597 116.063 49.0997 116.219 49.2425Z" fill="#3E261C"/>
<path d="M32.9809 109.213C33.0773 109.299 33.1736 109.385 33.2703 109.473C34.8335 109.572 36.3967 109.67 38.0578 109.773C38.4464 113.05 38.8509 116.461 39.2554 119.872C37.7024 120 36.147 120.132 34.5941 120.261C32.9823 120.268 31.3702 120.273 29.6444 120.28L27.8465 105.12C29.4149 104.934 30.9037 104.758 32.3899 104.581C32.5867 106.123 32.7865 107.668 32.9833 109.21L32.9809 109.213Z" fill="#BB6635"/>
<path d="M34.6063 120.387C34.6275 120.495 34.646 120.604 34.6676 120.716C34.5478 120.644 34.428 120.572 34.3114 120.502C34.4099 120.466 34.5081 120.426 34.6066 120.389L34.6063 120.387Z" fill="#0D0C0C"/>
<path d="M115.421 49.1093C106.464 50.2661 97.5088 51.4254 88.5509 52.5823C88.3522 50.907 88.1539 49.2344 87.9442 47.4658L114.848 44.2752L115.422 49.112L115.421 49.1093Z" fill="#C8804D"/>
<path d="M61.2505 78.1027C60.0721 78.248 58.8941 78.3961 57.7157 78.5414C61.6502 76.8541 65.8529 77.0064 69.9948 76.7626C70.006 76.8336 70.0175 76.9073 70.026 76.9786C68.1071 77.234 66.1879 77.4866 64.2718 77.7416C64.0881 77.7634 63.9017 77.7855 63.718 77.8073C63.2628 77.8613 62.8076 77.9153 62.3525 77.9692C61.985 78.0128 61.6176 78.0564 61.2502 78.1L61.2505 78.1027Z" fill="#F4B26B"/>
<path d="M70.026 76.9787C70.0175 76.9074 70.006 76.8337 69.9948 76.7627C75.1102 76.2172 80.2256 75.6717 85.344 75.1287L85.377 75.2193C80.261 75.8066 75.145 76.3938 70.0287 76.9783L70.026 76.9787Z" fill="#FDC878"/>
<path d="M107.307 72.877L107.896 77.8454C106.078 78.061 104.271 78.2753 102.462 78.4899C104.071 78.0404 105.684 77.5934 107.439 77.1044C107.4 75.9134 107.354 74.3952 107.307 72.877Z" fill="#F4B26B"/>
<path d="M102.708 80.3819C102.814 81.4816 102.92 82.5841 103.025 83.6838C102.848 83.6964 102.675 83.7086 102.498 83.7212C102.491 81.9731 102.481 80.2226 102.474 78.4745C102.498 78.6524 102.521 78.8276 102.545 79.0055C102.6 79.4634 102.654 79.924 102.708 80.3819Z" fill="#F4B26B"/>
<path d="M107.285 72.3179C108.568 72.2352 109.852 72.1553 111.135 72.0726C110.045 72.2326 108.951 72.3928 107.861 72.5527C107.683 72.5766 107.505 72.6032 107.328 72.6271C107.315 72.5229 107.3 72.4217 107.285 72.3179Z" fill="#DF9057"/>
<path d="M107.328 72.6271C107.505 72.6032 107.683 72.5766 107.861 72.5527C107.874 72.6401 107.887 72.7248 107.892 72.8132C107.728 72.8382 107.567 72.8628 107.403 72.8878C107.352 72.8077 107.328 72.7216 107.325 72.6274L107.328 72.6271Z" fill="#0D0C0C"/>
<path d="M85.6526 75.1756C85.6202 75.3713 85.5881 75.5697 85.5557 75.7654C85.4952 75.5835 85.4347 75.4016 85.3715 75.22L85.3385 75.1294C85.4432 75.1448 85.5452 75.1605 85.6502 75.1786L85.6526 75.1756Z" fill="#C9814E"/>
<path d="M67.0088 105.486C66.9315 105.468 66.8507 105.466 66.7718 105.481C66.3231 101.744 65.8741 98.0051 65.4281 94.2682L65.4116 94.2924C67.0507 94.0229 68.6898 93.7535 70.3262 93.4843L81.5282 92.0252C81.6216 92.0391 81.715 92.0531 81.8084 92.067L81.7787 92.0511C82.0168 94.0582 82.2548 96.0653 82.4928 98.0724L82.5047 98.032C80.61 98.2567 78.7153 98.4814 76.7411 98.7155L77.3619 103.95L77.374 103.935C73.9181 104.453 70.4647 104.968 67.0088 105.486Z" fill="#26221D"/>
<path d="M83.5276 109.049C83.6386 109.047 83.7524 109.045 83.8637 109.046C83.9666 110.148 84.0693 111.248 84.175 112.351C83.9941 112.959 83.8129 113.564 83.5802 114.345L62.2726 116.872C62.0909 115.317 61.9093 113.762 61.7304 112.207C66.9023 111.341 72.0665 110.433 77.2489 109.633C79.3213 109.312 81.4339 109.236 83.5273 109.047L83.5276 109.049Z" fill="#E19D60"/>
<path d="M54.1067 90.8284C55.7493 90.5641 57.3918 90.2998 59.0374 90.0379C59.2237 91.609 59.41 93.1802 59.6077 94.8473L54.6558 95.4345L54.1098 90.8308L54.1067 90.8284Z" fill="#B8714B"/>
<path d="M77.3619 103.95C77.1671 102.307 76.9727 100.668 76.7411 98.7153C78.7181 98.4809 80.61 98.2565 82.5047 98.0318C81.4123 100.122 79.1056 98.5128 77.7438 99.6669C77.6175 101.064 77.4912 102.508 77.3619 103.95Z" fill="#DF9057"/>
<path d="M65.4282 94.268C65.8768 98.0046 66.3259 101.744 66.7718 105.481C65.3333 101.862 64.9254 98.1174 65.4282 94.268Z" fill="#DF9057"/>
<path d="M67.0088 105.486C70.4647 104.968 73.9181 104.453 77.374 103.934C74.1022 105.676 70.5061 105.246 67.0088 105.486Z" fill="#DF9057"/>
<path d="M81.5282 92.0248C77.7934 92.5122 74.0586 92.9996 70.3262 93.484C70.3098 93.3691 70.2907 93.2546 70.2739 93.1371C74.0188 92.6874 77.7636 92.2377 81.5057 91.7884C81.5148 91.8651 81.5242 91.9447 81.5279 92.0221L81.5282 92.0248Z" fill="#F19C5D"/>
<path d="M82.4955 98.0721C82.2575 96.065 82.0195 94.0579 81.7815 92.0508C83.1958 93.9184 82.8772 95.9915 82.4955 98.0721Z" fill="#DF9057"/>
<path d="M70.2743 93.1399C70.2907 93.2548 70.3098 93.3693 70.3265 93.4869C68.6874 93.7563 67.0483 94.0258 65.4119 94.2949C67.0319 93.911 68.6546 93.5267 70.2773 93.1424L70.2743 93.1399Z" fill="#DF9057"/>
<path d="M81.5282 92.0251C81.5218 91.948 81.5152 91.8681 81.506 91.7913C81.6058 91.8824 81.7059 91.9762 81.8084 92.0669C81.715 92.053 81.6216 92.039 81.5282 92.0251Z" fill="#DF9057"/>
<path d="M104.171 95.5044C102.351 95.7258 100.529 95.9503 98.7085 96.1717C98.0669 96.2477 97.428 96.3235 96.7864 96.3996C96.2408 96.4643 95.6924 96.5293 95.1467 96.5941C94.963 96.6158 94.7793 96.6376 94.5956 96.6594C94.3243 96.6693 94.056 96.6817 93.7847 96.6916C93.5786 94.9532 93.3721 93.2121 93.1542 91.375L103.127 90.1923C103.476 91.9666 103.822 93.7384 104.172 95.5099L104.171 95.5044Z" fill="#BB6635"/>
<path d="M90.6119 119.103C90.611 119.19 90.6369 119.267 90.6923 119.336C88.924 119.548 87.1558 119.761 85.3876 119.973C85.1896 118.303 84.9912 116.631 84.7711 114.774L89.9917 114.155C90.1984 115.805 90.4052 117.454 90.6119 119.103Z" fill="#C8804D"/>
<path d="M90.2002 113.569L89.6136 108.622C91.3822 108.412 92.967 108.225 94.5491 108.037C94.8593 109.574 95.1667 111.111 95.5333 112.936L90.1975 113.569L90.2002 113.569Z" fill="#C8804D"/>
<path d="M89.9944 114.155L84.7738 114.774C84.9939 116.63 85.1923 118.303 85.3903 119.973C85.2971 119.984 85.2032 119.989 85.1097 119.998C84.9034 118.165 84.6972 116.332 84.4909 114.499L84.4667 114.53C86.2824 114.295 88.0953 114.06 89.9109 113.826L89.9416 113.85C89.9591 113.951 89.9797 114.054 89.9972 114.155L89.9944 114.155Z" fill="#F7A865"/>
<path d="M95.1437 96.5913C95.6893 96.5266 96.2377 96.4616 96.7833 96.3969C96.3306 97.268 95.7852 97.3355 95.1437 96.5913Z" fill="#E19D60"/>
<path d="M56.8154 118.123C56.7493 118.292 56.6859 118.461 56.6197 118.63C56.449 118.011 56.2751 117.389 56.1016 116.77C56.1812 116.761 56.2579 116.751 56.3365 116.734C56.4054 117.104 56.477 117.473 56.5462 117.846C56.635 117.938 56.7239 118.031 56.8154 118.123Z" fill="#DF9057"/>
<path d="M47.6731 97.1855C47.8651 97.2573 48.0571 97.3291 48.2464 97.4012C48.0544 97.3294 47.8624 97.2576 47.6731 97.1855Z" fill="#DF9057"/>
<path d="M85.3739 75.217C85.4344 75.3989 85.4949 75.5808 85.5582 75.7624C85.5433 75.9421 85.5254 76.1194 85.5106 76.2991C79.6869 76.8034 73.8661 77.3325 68.0402 77.7954C66.7953 77.8957 65.5286 77.7651 64.2742 77.7387C66.1931 77.4833 68.1123 77.2307 70.0284 76.9757C75.1444 76.3884 80.2604 75.8012 85.3767 75.2167L85.3739 75.217Z" fill="#211614"/>
<path d="M62.3497 77.9697C62.8049 77.9157 63.2601 77.8618 63.7152 77.8078C63.3511 78.6295 62.8959 78.6835 62.3497 77.9697Z" fill="#211614"/>
<path d="M85.5961 76.2692C85.6265 76.3379 85.6651 76.4056 85.6794 76.479C85.6826 76.5064 85.6372 76.5452 85.6133 76.5786C85.6068 76.4765 85.6026 76.3713 85.5961 76.2692Z" fill="#C9814E"/>
<path d="M35.7818 125.914C35.9627 125.893 36.1437 125.871 36.3247 125.85C36.2714 125.987 36.2181 126.124 36.1137 126.392C35.9494 126.156 35.8656 126.035 35.7818 125.914Z" fill="#0D0C0C"/>
<path d="M62.2726 116.873L83.5802 114.346C83.8129 113.564 83.9938 112.956 84.175 112.351C84.236 112.889 84.2939 113.424 84.3549 113.962C84.3311 113.995 84.2808 114.04 84.2892 114.064C84.3144 114.136 84.3606 114.197 84.3993 114.265C84.421 114.354 84.4427 114.444 84.4674 114.535L84.4916 114.504C77.0829 115.383 69.6714 116.262 62.2627 117.141L62.2766 117.164C62.2765 117.069 62.2788 116.972 62.2787 116.877L62.2726 116.873Z" fill="#FDC878"/>
<path d="M56.8154 118.123C56.7266 118.031 56.6351 117.939 56.5462 117.846C57.719 117.724 58.8945 117.601 60.0673 117.479C60.7972 117.467 61.5271 117.456 62.257 117.444C62.5237 119.248 62.7877 121.052 63.0547 122.858C62.6638 121.25 62.2732 119.644 61.8396 117.864C60.2366 117.945 58.526 118.034 56.8123 118.12L56.8154 118.123Z" fill="#FDC878"/>
<path d="M62.26 117.447C61.5301 117.458 60.8002 117.47 60.0703 117.481C60.8056 117.375 61.5382 117.268 62.2735 117.162L62.2596 117.138C62.2607 117.241 62.2617 117.344 62.26 117.447Z" fill="#E09C5F"/>
<path d="M136.667 85.7808C134.908 86.0005 133.152 86.2172 131.393 86.4369C131.299 84.7519 131.205 83.0697 131.111 81.3848C132.682 81.1985 134.25 81.0125 136.076 80.7959L136.667 85.7808Z" fill="#8A5337"/>
<path d="M84.3546 113.959C84.2936 113.421 84.2357 112.886 84.1747 112.348C84.0717 111.245 83.9691 110.145 83.8633 109.043C85.683 108.819 87.5054 108.594 89.3251 108.37C89.5184 110.188 89.7121 112.008 89.9081 113.826C88.0925 114.061 86.2796 114.295 84.464 114.53C84.4423 114.441 84.4206 114.352 84.3958 114.26C84.3838 114.158 84.3663 114.058 84.3518 113.959L84.3546 113.959Z" fill="#0D0C0C"/>
<path d="M36.0249 125.315L35.4825 120.742L39.409 120.276L39.9514 124.85L36.0249 125.315Z" fill="#C9814E"/>
<path d="M125.688 87.0496C125.755 87.1027 125.832 87.1159 125.915 87.0894C126.326 90.6497 126.734 94.2104 127.145 97.7707C127.095 97.8351 127.044 97.8995 126.993 97.9639C124.175 98.3482 121.356 98.7325 118.538 99.1168C117.78 99.1956 117.025 99.274 116.266 99.3528C115.849 95.6013 115.43 91.8502 115.013 88.1014L114.987 88.1211C118.554 87.7648 122.121 87.4086 125.688 87.0523L125.688 87.0496Z" fill="#2C2720"/>
<path d="M115.016 88.1009C115.433 91.8524 115.853 95.6036 116.269 99.3523C115.07 95.688 114.472 91.958 115.016 88.1009Z" fill="#F19C5D"/>
<path d="M62.2601 117.446C62.259 117.344 62.2579 117.241 62.2596 117.138C69.6683 116.259 77.0798 115.38 84.4885 114.502C84.6948 116.335 84.901 118.168 85.1073 120C84.7502 120.084 84.3931 120.169 84.0361 120.253C83.4922 120.309 82.9511 120.365 82.4075 120.423C81.9438 120.476 81.4825 120.525 81.0188 120.577C79.836 120.709 78.6564 120.843 77.4736 120.975C77.3722 120.987 77.268 121 77.1668 121.014C76.6267 121.078 76.0893 121.142 75.5491 121.206C73.7953 121.47 72.039 121.737 70.2852 122C67.8373 122.296 65.3894 122.592 62.9442 122.887L63.0146 122.918L63.0575 122.857C62.7907 121.054 62.5268 119.25 62.2597 117.444L62.2601 117.446Z" fill="#0D0C0C"/>
<path d="M117.233 110.927C117.235 110.824 117.239 110.721 117.241 110.618C126.756 109.489 136.27 108.361 145.782 107.233L146.392 112.733C145.934 112.829 145.473 112.925 145.014 113.021C144.317 113.096 143.622 113.17 142.925 113.247C142.33 113.315 141.737 113.38 141.141 113.447C139.624 113.619 138.107 113.793 136.59 113.965C136.458 113.98 136.327 113.996 136.195 114.014C135.504 114.096 134.811 114.179 134.12 114.261C131.864 114.584 129.609 114.91 127.356 115.232C124.214 115.61 121.07 115.989 117.928 116.367L118.015 116.396L118.074 116.333C117.794 114.531 117.514 112.729 117.233 110.925L117.233 110.927Z" fill="#0D0C0C"/>
<path d="M62.9446 122.891C65.3925 122.595 67.8404 122.299 70.2855 122.003C72.0394 121.74 73.7956 121.473 75.5494 121.209C76.0896 121.145 76.627 121.082 77.1672 121.018C77.2686 121.006 77.3728 120.993 77.4739 120.978C78.6567 120.846 79.8364 120.712 81.0191 120.58C81.4828 120.528 81.9441 120.479 82.4078 120.427C82.9517 120.371 83.4929 120.315 84.0364 120.256C84.1986 120.334 84.3605 120.409 84.269 120.364L62.9449 122.893L62.9446 122.891Z" fill="#FDC878"/>
<path d="M84.3546 113.959C84.3666 114.06 84.3841 114.161 84.3986 114.26C84.3603 114.195 84.3138 114.131 84.2886 114.059C84.2801 114.034 84.3308 113.992 84.3543 113.956L84.3546 113.959Z" fill="#E19D60"/>
<path d="M77.476 120.972C77.3746 120.984 77.2704 120.997 77.1692 121.012C77.2707 121 77.3749 120.987 77.476 120.972Z" fill="#E09C5F"/>
<path d="M97.3349 146.65L91.6947 147.319L92.4075 153.33L98.0477 152.661L97.3349 146.65Z" fill="#4B271A"/>
<path d="M118.113 144.186L112.473 144.855L113.186 150.865L118.826 150.196L118.113 144.186Z" fill="#4B271A"/>
<path d="M141.197 119.191C141.004 119.161 140.814 119.131 140.621 119.098C140.44 119.119 140.262 119.135 140.081 119.156C138.818 119.531 137.559 119.909 136.315 120.279C136.249 121.849 136.178 123.462 136.109 125.077L125.336 126.355L124.689 120.901L113.702 122.204C112.43 120.717 114.272 118.244 112.033 117.038C111.394 117.117 110.756 117.198 110.117 117.277C109.124 117.439 108.132 117.601 107.138 117.761C107.169 117.835 107.158 117.9 107.109 117.961C107.23 119.685 107.352 121.411 107.475 123.134L105.27 123.368C105.087 123.39 104.902 123.406 104.718 123.425C103.988 123.501 103.254 123.576 102.524 123.652C102.468 123.72 102.398 123.762 102.313 123.777C98.6167 124.213 94.9203 124.648 91.2238 125.084L91.1228 125.076L91.0274 125.115C87.3841 125.648 83.7435 126.179 80.1005 126.714C80.1004 126.901 80.0972 127.085 80.097 127.271C80.1212 127.452 80.1458 127.635 80.17 127.816C80.2188 127.993 80.2653 128.174 80.3142 128.352C81.2487 129.456 81.5077 130.632 80.6725 131.913L78.2454 132.173C77.5469 132.425 76.8514 132.68 76.1531 132.935C75.9554 133.824 75.7604 134.711 75.5623 135.597C75.6589 136.411 75.7606 137.222 75.86 138.036C72.32 139.393 68.6764 139.875 64.9115 139.312C64.7123 137.773 64.5107 136.237 64.3115 134.698C62.5452 134.552 60.7813 134.402 59.015 134.256C58.9368 134.229 58.855 134.219 58.77 134.229C57.8444 133.928 57.823 133.466 58.5377 132.881C58.4077 131.784 58.2803 130.687 58.1527 129.587C56.3136 129.624 54.4743 129.659 52.6352 129.696C52.5826 129.627 52.5649 129.549 52.5826 129.463C52.5338 129.38 52.4877 129.297 52.4417 129.213C52.339 129.145 52.2364 129.076 52.058 128.956C52.1839 128.821 52.2852 128.715 52.3866 128.608C52.2308 127.083 52.0723 125.559 51.9165 124.034C51.8861 123.966 51.8447 123.898 51.825 123.825C51.8159 123.796 51.8525 123.753 51.8678 123.717C51.6129 122.154 51.3577 120.589 51.1001 119.026L45.9837 119.633L50.527 157.943L55.7476 157.324L57.7058 173.836L63.3487 173.167L64.6836 184.422L70.1674 183.772L70.8178 189.256L82.0351 187.926L82.7192 193.695L93.7857 192.382L94.4227 197.754L121.812 194.506L121.151 188.934L132.201 187.624L131.534 182L137.163 181.332L135.91 170.765C136.074 170.712 136.228 170.658 136.386 170.606L143.301 169.785L141.192 152.001L144.949 151.556L144.023 143.752C144.047 143.716 144.07 143.68 144.091 143.644L141.19 119.18L141.197 119.191ZM127.787 148.856L122.144 149.525L122.796 155.02L117.424 155.657C115.692 156.007 113.962 156.357 112.018 156.749L112.636 161.958L101.462 163.283L100.844 158.074C98.7461 158.175 96.8578 158.266 94.9694 158.356L89.4664 159.009L88.909 154.309C88.6054 154.07 88.3045 153.83 88.0008 153.591C87.5429 153.645 87.0853 153.702 86.625 153.76C86.3504 154.562 85.9885 154.605 85.5337 153.889C84.8013 153.973 84.0686 154.054 83.3361 154.138C81.606 154.344 79.8758 154.549 78.0003 154.771L76.673 143.579L81.9868 142.948L81.3306 137.415L87.1134 136.729C87.316 136.75 87.5214 136.77 87.7237 136.788L96.9522 135.663C98.2296 135.461 99.51 135.262 100.787 135.061C99.9358 135.031 99.0843 135.001 98.132 134.967L97.5197 129.804L113.848 127.867C113.63 129.778 115.302 131.615 113.724 133.526C114.095 133.51 114.468 133.497 114.839 133.48C116.517 133.281 118.192 133.083 120.029 132.865L120.218 134.455C120.251 134.523 120.29 134.591 120.312 134.664C120.321 134.693 120.282 134.734 120.264 134.769C120.344 135.38 120.423 135.994 120.503 136.604C120.539 136.669 120.586 136.733 120.608 136.803C120.616 136.827 120.574 136.871 120.553 136.904C120.596 137.171 120.636 137.442 120.679 137.709C120.742 137.863 120.807 138.017 120.87 138.173C120.902 138.297 120.933 138.422 120.965 138.548L126.482 137.894L127.782 148.856L127.787 148.856ZM131.048 126.339L136.304 125.716L136.893 130.684L131.637 131.308L131.048 126.339Z" fill="#211614"/>
</svg>
